<?xml version="1.0" encoding="utf-8"?>
<!-- Generator: Adobe Illustrator 16.0.0, SVG Export Plug-In . SVG Version: 6.00 Build 0)  -->
<!DOCTYPE svg PUBLIC "-//W3C//DTD SVG 1.0//EN" "http://www.w3.org/TR/2001/REC-SVG-20010904/DTD/svg10.dtd">
<svg version="1.0" id="Layer_1" xmlns="http://www.w3.org/2000/svg" xmlns:xlink="http://www.w3.org/1999/xlink" x="0px" y="0px"
	 width="64px" height="64px" viewBox="0 0 64 64" enable-background="new 0 0 64 64" xml:space="preserve">
<g>
	<path fill="#231F20" d="M55.684,51.08c0.367-0.572,0.418-1.295,0.135-1.914L51.617,40H12.383l-4.201,9.166
		c-0.283,0.619-0.232,1.342,0.135,1.914C8.686,51.654,9.318,52,10,52h16h12h16C54.682,52,55.314,51.654,55.684,51.08z"/>
	<path fill="#231F20" d="M42.451,20L33.818,1.166C33.492,0.455,32.781,0,32,0s-1.492,0.455-1.818,1.166L21.549,20H42.451z"/>
	<polygon fill="#231F20" points="14.217,36 49.783,36 44.283,24 19.717,24 	"/>
	<path fill="#231F20" d="M26,56v6c0,1.105,0.895,2,2,2h8c1.105,0,2-0.895,2-2v-6H26z"/>
</g>
</svg>
